<mxfile host="Electron" modified="2024-06-09T12:42:54.149Z" agent="Mozilla/5.0 (Windows NT 10.0; Win64; x64) AppleWebKit/537.36 (KHTML, like Gecko) draw.io/24.5.1 Chrome/124.0.6367.207 Electron/30.0.6 Safari/537.36" etag="eyLPEvmUhCqjK1QHfJva" version="24.5.1" type="device">
  <diagram name="Page-1" id="jQfFuTelA9-RSAM7OBAm">
    <mxGraphModel dx="353" dy="502" grid="1" gridSize="10" guides="1" tooltips="1" connect="1" arrows="1" fold="1" page="1" pageScale="1" pageWidth="850" pageHeight="1100" math="0" shadow="0">
      <root>
        <mxCell id="0" />
        <mxCell id="1" parent="0" />
        <mxCell id="PWMRe2JEmXaNFQfpVe5K-1" value="&lt;font style=&quot;font-size: 11px;&quot;&gt;RecommendController&amp;nbsp;&lt;/font&gt;&lt;span style=&quot;font-size: 11px; background-color: initial;&quot;&gt;&amp;lt;&amp;lt;Controller&amp;gt;&amp;gt;&lt;/span&gt;" style="swimlane;fontStyle=1;align=center;verticalAlign=top;childLayout=stackLayout;horizontal=1;startSize=26;horizontalStack=0;resizeParent=1;resizeParentMax=0;resizeLast=0;collapsible=1;marginBottom=0;whiteSpace=wrap;html=1;" vertex="1" parent="1">
          <mxGeometry x="270" y="260" width="230" height="90" as="geometry" />
        </mxCell>
        <mxCell id="PWMRe2JEmXaNFQfpVe5K-2" value="- feeling: String" style="text;strokeColor=none;fillColor=none;align=left;verticalAlign=top;spacingLeft=4;spacingRight=4;overflow=hidden;rotatable=0;points=[[0,0.5],[1,0.5]];portConstraint=eastwest;whiteSpace=wrap;html=1;" vertex="1" parent="PWMRe2JEmXaNFQfpVe5K-1">
          <mxGeometry y="26" width="230" height="24" as="geometry" />
        </mxCell>
        <mxCell id="PWMRe2JEmXaNFQfpVe5K-3" value="" style="line;strokeWidth=1;fillColor=none;align=left;verticalAlign=middle;spacingTop=-1;spacingLeft=3;spacingRight=3;rotatable=0;labelPosition=right;points=[];portConstraint=eastwest;strokeColor=inherit;" vertex="1" parent="PWMRe2JEmXaNFQfpVe5K-1">
          <mxGeometry y="50" width="230" height="8" as="geometry" />
        </mxCell>
        <mxCell id="PWMRe2JEmXaNFQfpVe5K-4" value="+ feeling(feeling)" style="text;strokeColor=none;fillColor=none;align=left;verticalAlign=top;spacingLeft=4;spacingRight=4;overflow=hidden;rotatable=0;points=[[0,0.5],[1,0.5]];portConstraint=eastwest;whiteSpace=wrap;html=1;" vertex="1" parent="PWMRe2JEmXaNFQfpVe5K-1">
          <mxGeometry y="58" width="230" height="32" as="geometry" />
        </mxCell>
        <mxCell id="PWMRe2JEmXaNFQfpVe5K-5" value="&lt;span style=&quot;font-size: 11px;&quot;&gt;MovieService&lt;/span&gt;" style="swimlane;fontStyle=1;align=center;verticalAlign=top;childLayout=stackLayout;horizontal=1;startSize=26;horizontalStack=0;resizeParent=1;resizeParentMax=0;resizeLast=0;collapsible=1;marginBottom=0;whiteSpace=wrap;html=1;" vertex="1" parent="1">
          <mxGeometry x="265" y="90" width="250" height="100" as="geometry" />
        </mxCell>
        <mxCell id="PWMRe2JEmXaNFQfpVe5K-7" value="" style="line;strokeWidth=1;fillColor=none;align=left;verticalAlign=middle;spacingTop=-1;spacingLeft=3;spacingRight=3;rotatable=0;labelPosition=right;points=[];portConstraint=eastwest;strokeColor=inherit;" vertex="1" parent="PWMRe2JEmXaNFQfpVe5K-5">
          <mxGeometry y="26" width="250" height="8" as="geometry" />
        </mxCell>
        <mxCell id="PWMRe2JEmXaNFQfpVe5K-8" value="+getMoviesByHappy()&lt;div&gt;+getMoviesBySad()&lt;br&gt;&lt;/div&gt;&lt;div&gt;+&lt;span style=&quot;background-color: initial;&quot;&gt;getMoviesByBored()&lt;/span&gt;&lt;/div&gt;&lt;div&gt;+getMoviesByIdk()&lt;span style=&quot;background-color: initial;&quot;&gt;&lt;br&gt;&lt;/span&gt;&lt;/div&gt;" style="text;strokeColor=none;fillColor=none;align=left;verticalAlign=top;spacingLeft=4;spacingRight=4;overflow=hidden;rotatable=0;points=[[0,0.5],[1,0.5]];portConstraint=eastwest;whiteSpace=wrap;html=1;" vertex="1" parent="PWMRe2JEmXaNFQfpVe5K-5">
          <mxGeometry y="34" width="250" height="66" as="geometry" />
        </mxCell>
        <mxCell id="PWMRe2JEmXaNFQfpVe5K-9" value="" style="endArrow=none;html=1;rounded=0;exitX=0.591;exitY=0.011;exitDx=0;exitDy=0;entryX=0.481;entryY=1.021;entryDx=0;entryDy=0;entryPerimeter=0;exitPerimeter=0;" edge="1" parent="1" source="PWMRe2JEmXaNFQfpVe5K-1" target="PWMRe2JEmXaNFQfpVe5K-8">
          <mxGeometry width="50" height="50" relative="1" as="geometry">
            <mxPoint x="450" y="240" as="sourcePoint" />
            <mxPoint x="310" y="170" as="targetPoint" />
          </mxGeometry>
        </mxCell>
      </root>
    </mxGraphModel>
  </diagram>
</mxfile>
